<svg id="visual" viewBox="0 0 900 600" width="900" height="600" xmlns="http://www.w3.org/2000/svg" xmlns:xlink="http://www.w3.org/1999/xlink" version="1.1"><rect x="0" y="0" width="900" height="600" fill="#000000"></rect><defs><linearGradient id="grad1_0" x1="33.3%" y1="100%" x2="100%" y2="0%"><stop offset="20%" stop-color="#000000" stop-opacity="1"></stop><stop offset="80%" stop-color="#000000" stop-opacity="1"></stop></linearGradient></defs><defs><linearGradient id="grad2_0" x1="0%" y1="100%" x2="66.7%" y2="0%"><stop offset="20%" stop-color="#000000" stop-opacity="1"></stop><stop offset="80%" stop-color="#000000" stop-opacity="1"></stop></linearGradient></defs><g transform="translate(900, 600)"><path d="M-486.7 0C-487.6 -70.6 -488.5 -141.2 -449.7 -186.3C-410.9 -231.4 -332.5 -251 -280 -280C-227.6 -309 -201.1 -347.4 -158.8 -383.4C-116.5 -419.4 -58.2 -453.1 0 -486.7L0 0Z" fill="#FBAE3C"></path></g><g transform="translate(0, 0)"><path d="M486.7 0C477.3 65.4 467.9 130.8 437.9 181.4C407.9 232 357.3 267.9 314.7 314.7C272 361.5 237.4 419.2 186.3 449.7C135.2 480.2 67.6 483.5 0 486.7L0 0Z" fill="#FBAE3C"></path></g></svg>